{
	"asset":{
		"generator":"Khronos glTF Blender I/O v4.2.60",
		"version":"2.0"
	},
	"scene":0,
	"scenes":[
		{
			"name":"Scene",
			"nodes":[
				0,
				1,
				2,
				3,
				4
			]
		}
	],
	"nodes":[
		{
			"mesh":0,
			"name":"car"
		},
		{
			"mesh":1,
			"name":"wheel"
		},
		{
			"mesh":2,
			"name":"wheel.003"
		},
		{
			"mesh":3,
			"name":"wheel.001"
		},
		{
			"mesh":4,
			"name":"wheel.002"
		}
	],
	"materials":[
		{
			"doubleSided":true,
			"name":"car",
			"pbrMetallicRoughness":{
				"baseColorFactor":[
					0.75,
					0.75,
					0.75,
					1
				],
				"metallicFactor":0,
				"roughnessFactor":0.4000000059604645
			}
		}
	],
	"meshes":[
		{
			"name":"car",
			"primitives":[
				{
					"attributes":{
						"POSITION":0,
						"NORMAL":1
					},
					"indices":2,
					"material":0
				}
			]
		},
		{
			"name":"wheel.001",
			"primitives":[
				{
					"attributes":{
						"POSITION":3,
						"NORMAL":4
					},
					"indices":5,
					"material":0
				}
			]
		},
		{
			"name":"wheel",
			"primitives":[
				{
					"attributes":{
						"POSITION":6,
						"NORMAL":7
					},
					"indices":8,
					"material":0
				}
			]
		},
		{
			"name":"wheel.002",
			"primitives":[
				{
					"attributes":{
						"POSITION":9,
						"NORMAL":10
					},
					"indices":11,
					"material":0
				}
			]
		},
		{
			"name":"wheel.003",
			"primitives":[
				{
					"attributes":{
						"POSITION":12,
						"NORMAL":13
					},
					"indices":14,
					"material":0
				}
			]
		}
	],
	"accessors":[
		{
			"bufferView":0,
			"componentType":5126,
			"count":200860,
			"max":[
				3.0400476455688477,
				3.698742151260376,
				2.5287506580352783
			],
			"min":[
				-2.805656909942627,
				0.562126636505127,
				-2.4597530364990234
			],
			"type":"VEC3"
		},
		{
			"bufferView":1,
			"componentType":5126,
			"count":200860,
			"type":"VEC3"
		},
		{
			"bufferView":2,
			"componentType":5125,
			"count":325584,
			"type":"SCALAR"
		},
		{
			"bufferView":3,
			"componentType":5126,
			"count":52453,
			"max":[
				2.6930501461029053,
				1.992510437965393,
				2.1938540935516357
			],
			"min":[
				0.698197603225708,
				-0.002342409687116742,
				0.5602810382843018
			],
			"type":"VEC3"
		},
		{
			"bufferView":4,
			"componentType":5126,
			"count":52453,
			"type":"VEC3"
		},
		{
			"bufferView":5,
			"componentType":5123,
			"count":53820,
			"type":"SCALAR"
		},
		{
			"bufferView":6,
			"componentType":5126,
			"count":52498,
			"max":[
				2.6930501461029053,
				1.992500901222229,
				-0.49128395318984985
			],
			"min":[
				0.698197603225708,
				-0.0023521350231021643,
				-2.124856948852539
			],
			"type":"VEC3"
		},
		{
			"bufferView":7,
			"componentType":5126,
			"count":52498,
			"type":"VEC3"
		},
		{
			"bufferView":8,
			"componentType":5123,
			"count":53820,
			"type":"SCALAR"
		},
		{
			"bufferView":9,
			"componentType":5126,
			"count":25948,
			"max":[
				-0.10686946660280228,
				1.9925100803375244,
				2.0746102333068848
			],
			"min":[
				-2.101722478866577,
				-0.002342385705560446,
				1.260768175125122
			],
			"type":"VEC3"
		},
		{
			"bufferView":10,
			"componentType":5126,
			"count":25948,
			"type":"VEC3"
		},
		{
			"bufferView":11,
			"componentType":5123,
			"count":26412,
			"type":"SCALAR"
		},
		{
			"bufferView":12,
			"componentType":5126,
			"count":25952,
			"max":[
				-0.10686946660280228,
				1.992500901222229,
				-1.191771388053894
			],
			"min":[
				-2.101722478866577,
				-0.0023519929964095354,
				-2.0056233406066895
			],
			"type":"VEC3"
		},
		{
			"bufferView":13,
			"componentType":5126,
			"count":25952,
			"type":"VEC3"
		},
		{
			"bufferView":14,
			"componentType":5123,
			"count":26412,
			"type":"SCALAR"
		}
	],
	"bufferViews":[
		{
			"buffer":0,
			"byteLength":2410320,
			"byteOffset":0,
			"target":34962
		},
		{
			"buffer":0,
			"byteLength":2410320,
			"byteOffset":2410320,
			"target":34962
		},
		{
			"buffer":0,
			"byteLength":1302336,
			"byteOffset":4820640,
			"target":34963
		},
		{
			"buffer":0,
			"byteLength":629436,
			"byteOffset":6122976,
			"target":34962
		},
		{
			"buffer":0,
			"byteLength":629436,
			"byteOffset":6752412,
			"target":34962
		},
		{
			"buffer":0,
			"byteLength":107640,
			"byteOffset":7381848,
			"target":34963
		},
		{
			"buffer":0,
			"byteLength":629976,
			"byteOffset":7489488,
			"target":34962
		},
		{
			"buffer":0,
			"byteLength":629976,
			"byteOffset":8119464,
			"target":34962
		},
		{
			"buffer":0,
			"byteLength":107640,
			"byteOffset":8749440,
			"target":34963
		},
		{
			"buffer":0,
			"byteLength":311376,
			"byteOffset":8857080,
			"target":34962
		},
		{
			"buffer":0,
			"byteLength":311376,
			"byteOffset":9168456,
			"target":34962
		},
		{
			"buffer":0,
			"byteLength":52824,
			"byteOffset":9479832,
			"target":34963
		},
		{
			"buffer":0,
			"byteLength":311424,
			"byteOffset":9532656,
			"target":34962
		},
		{
			"buffer":0,
			"byteLength":311424,
			"byteOffset":9844080,
			"target":34962
		},
		{
			"buffer":0,
			"byteLength":52824,
			"byteOffset":10155504,
			"target":34963
		}
	],
	"buffers":[
		{
			"byteLength":10208328,
			"uri":"truck.bin"
		}
	]
}
