{
	"asset":{
		"generator":"Khronos glTF Blender I/O v4.2.60",
		"version":"2.0"
	},
	"scene":0,
	"scenes":[
		{
			"name":"Scene",
			"nodes":[
				0,
				1,
				2,
				3,
				4,
				5
			]
		}
	],
	"nodes":[
		{
			"mesh":0,
			"name":"car"
		},
		{
			"mesh":1,
			"name":"chassis"
		},
		{
			"mesh":2,
			"name":"wheel-lf",
			"translation":[
				-0.9913983941078186,
				-1.1832125186920166,
				1.6298452615737915
			]
		},
		{
			"mesh":3,
			"name":"wheel-lr",
			"translation":[
				1.808695673942566,
				-1.1834321022033691,
				1.3235530853271484
			]
		},
		{
			"mesh":4,
			"name":"wheel-rf",
			"translation":[
				-0.9913981556892395,
				-1.1832172870635986,
				-1.6379271745681763
			]
		},
		{
			"mesh":5,
			"name":"wheel-rr",
			"translation":[
				1.8086957931518555,
				-1.1834368705749512,
				-1.3316383361816406
			]
		}
	],
	"materials":[
		{
			"doubleSided":true,
			"name":"window",
			"pbrMetallicRoughness":{
				"baseColorFactor":[
					0.11782728135585785,
					0.6057908535003662,
					0.5257276296615601,
					1
				],
				"metallicFactor":0,
				"roughnessFactor":0.4000000059604645
			}
		},
		{
			"doubleSided":true,
			"name":"car",
			"pbrMetallicRoughness":{
				"baseColorFactor":[
					0.6256847977638245,
					0.398165762424469,
					0.00566686550155282,
					1
				],
				"metallicFactor":0,
				"roughnessFactor":0.4000000059604645
			}
		},
		{
			"doubleSided":true,
			"name":"bumpers",
			"pbrMetallicRoughness":{
				"baseColorFactor":[
					0.005396417807787657,
					0.0041997404769063,
					0,
					1
				],
				"metallicFactor":0,
				"roughnessFactor":0.4000000059604645
			}
		}
	],
	"meshes":[
		{
			"name":"car.010",
			"primitives":[
				{
					"attributes":{
						"POSITION":0,
						"NORMAL":1
					},
					"indices":2,
					"material":0
				},
				{
					"attributes":{
						"POSITION":3,
						"NORMAL":4
					},
					"indices":5,
					"material":1
				},
				{
					"attributes":{
						"POSITION":6,
						"NORMAL":7
					},
					"indices":8,
					"material":2
				}
			]
		},
		{
			"name":"Cube",
			"primitives":[
				{
					"attributes":{
						"POSITION":9,
						"NORMAL":10,
						"TEXCOORD_0":11
					},
					"indices":12
				}
			]
		},
		{
			"name":"wheel.002",
			"primitives":[
				{
					"attributes":{
						"POSITION":13,
						"NORMAL":14
					},
					"indices":15,
					"material":2
				}
			]
		},
		{
			"name":"wheel.001",
			"primitives":[
				{
					"attributes":{
						"POSITION":16,
						"NORMAL":17
					},
					"indices":18,
					"material":2
				}
			]
		},
		{
			"name":"wheel.003",
			"primitives":[
				{
					"attributes":{
						"POSITION":19,
						"NORMAL":20
					},
					"indices":21,
					"material":2
				}
			]
		},
		{
			"name":"wheel",
			"primitives":[
				{
					"attributes":{
						"POSITION":22,
						"NORMAL":23
					},
					"indices":24,
					"material":2
				}
			]
		}
	],
	"accessors":[
		{
			"bufferView":0,
			"componentType":5126,
			"count":199,
			"max":[
				-0.5742692351341248,
				1.0528970956802368,
				1.662489414215088
			],
			"min":[
				-1.849467396736145,
				0.496604323387146,
				0.22872871160507202
			],
			"type":"VEC3"
		},
		{
			"bufferView":1,
			"componentType":5126,
			"count":199,
			"type":"VEC3"
		},
		{
			"bufferView":2,
			"componentType":5123,
			"count":549,
			"type":"SCALAR"
		},
		{
			"bufferView":3,
			"componentType":5126,
			"count":160408,
			"max":[
				3.152514696121216,
				1.5205761194229126,
				2.1760103702545166
			],
			"min":[
				-2.5992939472198486,
				-1.6160393953323364,
				-2.1840908527374268
			],
			"type":"VEC3"
		},
		{
			"bufferView":4,
			"componentType":5126,
			"count":160408,
			"type":"VEC3"
		},
		{
			"bufferView":5,
			"componentType":5125,
			"count":285963,
			"type":"SCALAR"
		},
		{
			"bufferView":6,
			"componentType":5126,
			"count":36572,
			"max":[
				-0.5865916609764099,
				0.7791561484336853,
				2.4902117252349854
			],
			"min":[
				-2.693189859390259,
				-1.3707069158554077,
				-2.4982919692993164
			],
			"type":"VEC3"
		},
		{
			"bufferView":7,
			"componentType":5126,
			"count":36572,
			"type":"VEC3"
		},
		{
			"bufferView":8,
			"componentType":5123,
			"count":38232,
			"type":"SCALAR"
		},
		{
			"bufferView":9,
			"componentType":5126,
			"count":24,
			"max":[
				3.0521419048309326,
				1.5167535543441772,
				2.095932960510254
			],
			"min":[
				-2.5905392169952393,
				-1.589796781539917,
				-2.104067087173462
			],
			"type":"VEC3"
		},
		{
			"bufferView":10,
			"componentType":5126,
			"count":24,
			"type":"VEC3"
		},
		{
			"bufferView":11,
			"componentType":5126,
			"count":24,
			"type":"VEC2"
		},
		{
			"bufferView":12,
			"componentType":5123,
			"count":36,
			"type":"SCALAR"
		},
		{
			"bufferView":13,
			"componentType":5126,
			"count":26195,
			"max":[
				0.996995747089386,
				0.9975566864013672,
				0.4062260687351227
			],
			"min":[
				-0.9978572726249695,
				-0.9972957968711853,
				-0.40761598944664
			],
			"type":"VEC3"
		},
		{
			"bufferView":14,
			"componentType":5126,
			"count":26195,
			"type":"VEC3"
		},
		{
			"bufferView":15,
			"componentType":5123,
			"count":26832,
			"type":"SCALAR"
		},
		{
			"bufferView":16,
			"componentType":5126,
			"count":52428,
			"max":[
				0.9968212842941284,
				0.9977765679359436,
				0.8317620754241943
			],
			"min":[
				-0.9980312585830688,
				-0.9970762729644775,
				-0.8018109798431396
			],
			"type":"VEC3"
		},
		{
			"bufferView":17,
			"componentType":5126,
			"count":52428,
			"type":"VEC3"
		},
		{
			"bufferView":18,
			"componentType":5123,
			"count":53820,
			"type":"SCALAR"
		},
		{
			"bufferView":19,
			"componentType":5126,
			"count":26211,
			"max":[
				0.9969955086708069,
				0.9975523352622986,
				0.40761685371398926
			],
			"min":[
				-0.9978575110435486,
				-0.9973005652427673,
				-0.40623509883880615
			],
			"type":"VEC3"
		},
		{
			"bufferView":20,
			"componentType":5126,
			"count":26211,
			"type":"VEC3"
		},
		{
			"bufferView":21,
			"componentType":5123,
			"count":26832,
			"type":"SCALAR"
		},
		{
			"bufferView":22,
			"componentType":5126,
			"count":52480,
			"max":[
				0.9968211650848389,
				0.9977717995643616,
				0.8018155097961426
			],
			"min":[
				-0.9980313777923584,
				-0.9970812201499939,
				-0.8317574858665466
			],
			"type":"VEC3"
		},
		{
			"bufferView":23,
			"componentType":5126,
			"count":52480,
			"type":"VEC3"
		},
		{
			"bufferView":24,
			"componentType":5123,
			"count":53820,
			"type":"SCALAR"
		}
	],
	"bufferViews":[
		{
			"buffer":0,
			"byteLength":2388,
			"byteOffset":0,
			"target":34962
		},
		{
			"buffer":0,
			"byteLength":2388,
			"byteOffset":2388,
			"target":34962
		},
		{
			"buffer":0,
			"byteLength":1098,
			"byteOffset":4776,
			"target":34963
		},
		{
			"buffer":0,
			"byteLength":1924896,
			"byteOffset":5876,
			"target":34962
		},
		{
			"buffer":0,
			"byteLength":1924896,
			"byteOffset":1930772,
			"target":34962
		},
		{
			"buffer":0,
			"byteLength":1143852,
			"byteOffset":3855668,
			"target":34963
		},
		{
			"buffer":0,
			"byteLength":438864,
			"byteOffset":4999520,
			"target":34962
		},
		{
			"buffer":0,
			"byteLength":438864,
			"byteOffset":5438384,
			"target":34962
		},
		{
			"buffer":0,
			"byteLength":76464,
			"byteOffset":5877248,
			"target":34963
		},
		{
			"buffer":0,
			"byteLength":288,
			"byteOffset":5953712,
			"target":34962
		},
		{
			"buffer":0,
			"byteLength":288,
			"byteOffset":5954000,
			"target":34962
		},
		{
			"buffer":0,
			"byteLength":192,
			"byteOffset":5954288,
			"target":34962
		},
		{
			"buffer":0,
			"byteLength":72,
			"byteOffset":5954480,
			"target":34963
		},
		{
			"buffer":0,
			"byteLength":314340,
			"byteOffset":5954552,
			"target":34962
		},
		{
			"buffer":0,
			"byteLength":314340,
			"byteOffset":6268892,
			"target":34962
		},
		{
			"buffer":0,
			"byteLength":53664,
			"byteOffset":6583232,
			"target":34963
		},
		{
			"buffer":0,
			"byteLength":629136,
			"byteOffset":6636896,
			"target":34962
		},
		{
			"buffer":0,
			"byteLength":629136,
			"byteOffset":7266032,
			"target":34962
		},
		{
			"buffer":0,
			"byteLength":107640,
			"byteOffset":7895168,
			"target":34963
		},
		{
			"buffer":0,
			"byteLength":314532,
			"byteOffset":8002808,
			"target":34962
		},
		{
			"buffer":0,
			"byteLength":314532,
			"byteOffset":8317340,
			"target":34962
		},
		{
			"buffer":0,
			"byteLength":53664,
			"byteOffset":8631872,
			"target":34963
		},
		{
			"buffer":0,
			"byteLength":629760,
			"byteOffset":8685536,
			"target":34962
		},
		{
			"buffer":0,
			"byteLength":629760,
			"byteOffset":9315296,
			"target":34962
		},
		{
			"buffer":0,
			"byteLength":107640,
			"byteOffset":9945056,
			"target":34963
		}
	],
	"buffers":[
		{
			"byteLength":10052696,
			"uri":"truck.bin"
		}
	]
}
