{
	"asset":{
		"generator":"Khronos glTF Blender I/O v4.2.60",
		"version":"2.0"
	},
	"scene":0,
	"scenes":[
		{
			"name":"Scene",
			"nodes":[
				0,
				1,
				2,
				3,
				4
			]
		}
	],
	"nodes":[
		{
			"mesh":0,
			"name":"car",
			"translation":[
				0.0005214184639044106,
				-0.0026602894067764282,
				-0.004168488085269928
			]
		},
		{
			"mesh":1,
			"name":"wheel-lr",
			"translation":[
				1.808695673942566,
				-1.1834321022033691,
				1.3235530853271484
			]
		},
		{
			"mesh":2,
			"name":"wheel-lf",
			"translation":[
				-0.9913983941078186,
				-1.1832125186920166,
				1.6298452615737915
			]
		},
		{
			"mesh":3,
			"name":"wheel-rf",
			"translation":[
				-0.9913981556892395,
				-1.1832172870635986,
				-1.6379271745681763
			]
		},
		{
			"mesh":4,
			"name":"wheel-rr",
			"translation":[
				1.8086957931518555,
				-1.1834368705749512,
				-1.3316383361816406
			]
		}
	],
	"materials":[
		{
			"doubleSided":true,
			"name":"window",
			"pbrMetallicRoughness":{
				"baseColorFactor":[
					0.11782728135585785,
					0.6057908535003662,
					0.5257276296615601,
					1
				],
				"metallicFactor":0,
				"roughnessFactor":0.4000000059604645
			}
		},
		{
			"doubleSided":true,
			"name":"car",
			"pbrMetallicRoughness":{
				"baseColorFactor":[
					0.6256847977638245,
					0.398165762424469,
					0.00566686550155282,
					1
				],
				"metallicFactor":0,
				"roughnessFactor":0.4000000059604645
			}
		},
		{
			"doubleSided":true,
			"name":"bumpers",
			"pbrMetallicRoughness":{
				"baseColorFactor":[
					0.005396417807787657,
					0.0041997404769063,
					0,
					1
				],
				"metallicFactor":0,
				"roughnessFactor":0.4000000059604645
			}
		}
	],
	"meshes":[
		{
			"name":"car.010",
			"primitives":[
				{
					"attributes":{
						"POSITION":0,
						"NORMAL":1
					},
					"indices":2,
					"material":0
				},
				{
					"attributes":{
						"POSITION":3,
						"NORMAL":4
					},
					"indices":5,
					"material":1
				},
				{
					"attributes":{
						"POSITION":6,
						"NORMAL":7
					},
					"indices":8,
					"material":2
				}
			]
		},
		{
			"name":"wheel.001",
			"primitives":[
				{
					"attributes":{
						"POSITION":9,
						"NORMAL":10
					},
					"indices":11,
					"material":2
				}
			]
		},
		{
			"name":"wheel.002",
			"primitives":[
				{
					"attributes":{
						"POSITION":12,
						"NORMAL":13
					},
					"indices":14,
					"material":2
				}
			]
		},
		{
			"name":"wheel.003",
			"primitives":[
				{
					"attributes":{
						"POSITION":15,
						"NORMAL":16
					},
					"indices":17,
					"material":2
				}
			]
		},
		{
			"name":"wheel",
			"primitives":[
				{
					"attributes":{
						"POSITION":18,
						"NORMAL":19
					},
					"indices":20,
					"material":2
				}
			]
		}
	],
	"accessors":[
		{
			"bufferView":0,
			"componentType":5126,
			"count":199,
			"max":[
				-0.5747906565666199,
				1.055557370185852,
				1.6666579246520996
			],
			"min":[
				-1.8499888181686401,
				0.4992646276950836,
				0.23289719223976135
			],
			"type":"VEC3"
		},
		{
			"bufferView":1,
			"componentType":5126,
			"count":199,
			"type":"VEC3"
		},
		{
			"bufferView":2,
			"componentType":5123,
			"count":549,
			"type":"SCALAR"
		},
		{
			"bufferView":3,
			"componentType":5126,
			"count":160541,
			"max":[
				3.1519932746887207,
				1.5232363939285278,
				2.1801788806915283
			],
			"min":[
				-2.5998153686523438,
				-1.6133791208267212,
				-2.179922342300415
			],
			"type":"VEC3"
		},
		{
			"bufferView":4,
			"componentType":5126,
			"count":160541,
			"type":"VEC3"
		},
		{
			"bufferView":5,
			"componentType":5125,
			"count":285963,
			"type":"SCALAR"
		},
		{
			"bufferView":6,
			"componentType":5126,
			"count":36557,
			"max":[
				-0.587113082408905,
				0.7818164229393005,
				2.494380235671997
			],
			"min":[
				-2.693711280822754,
				-1.3680466413497925,
				-2.4941234588623047
			],
			"type":"VEC3"
		},
		{
			"bufferView":7,
			"componentType":5126,
			"count":36557,
			"type":"VEC3"
		},
		{
			"bufferView":8,
			"componentType":5123,
			"count":38232,
			"type":"SCALAR"
		},
		{
			"bufferView":9,
			"componentType":5126,
			"count":52428,
			"max":[
				0.9968212842941284,
				0.9977765679359436,
				0.8317620754241943
			],
			"min":[
				-0.9980312585830688,
				-0.9970762729644775,
				-0.8018109798431396
			],
			"type":"VEC3"
		},
		{
			"bufferView":10,
			"componentType":5126,
			"count":52428,
			"type":"VEC3"
		},
		{
			"bufferView":11,
			"componentType":5123,
			"count":53820,
			"type":"SCALAR"
		},
		{
			"bufferView":12,
			"componentType":5126,
			"count":26195,
			"max":[
				0.996995747089386,
				0.9975566864013672,
				0.4062260687351227
			],
			"min":[
				-0.9978572726249695,
				-0.9972957968711853,
				-0.40761598944664
			],
			"type":"VEC3"
		},
		{
			"bufferView":13,
			"componentType":5126,
			"count":26195,
			"type":"VEC3"
		},
		{
			"bufferView":14,
			"componentType":5123,
			"count":26832,
			"type":"SCALAR"
		},
		{
			"bufferView":15,
			"componentType":5126,
			"count":26211,
			"max":[
				0.9969955086708069,
				0.9975523352622986,
				0.40761685371398926
			],
			"min":[
				-0.9978575110435486,
				-0.9973005652427673,
				-0.40623509883880615
			],
			"type":"VEC3"
		},
		{
			"bufferView":16,
			"componentType":5126,
			"count":26211,
			"type":"VEC3"
		},
		{
			"bufferView":17,
			"componentType":5123,
			"count":26832,
			"type":"SCALAR"
		},
		{
			"bufferView":18,
			"componentType":5126,
			"count":52480,
			"max":[
				0.9968211650848389,
				0.9977717995643616,
				0.8018155097961426
			],
			"min":[
				-0.9980313777923584,
				-0.9970812201499939,
				-0.8317574858665466
			],
			"type":"VEC3"
		},
		{
			"bufferView":19,
			"componentType":5126,
			"count":52480,
			"type":"VEC3"
		},
		{
			"bufferView":20,
			"componentType":5123,
			"count":53820,
			"type":"SCALAR"
		}
	],
	"bufferViews":[
		{
			"buffer":0,
			"byteLength":2388,
			"byteOffset":0,
			"target":34962
		},
		{
			"buffer":0,
			"byteLength":2388,
			"byteOffset":2388,
			"target":34962
		},
		{
			"buffer":0,
			"byteLength":1098,
			"byteOffset":4776,
			"target":34963
		},
		{
			"buffer":0,
			"byteLength":1926492,
			"byteOffset":5876,
			"target":34962
		},
		{
			"buffer":0,
			"byteLength":1926492,
			"byteOffset":1932368,
			"target":34962
		},
		{
			"buffer":0,
			"byteLength":1143852,
			"byteOffset":3858860,
			"target":34963
		},
		{
			"buffer":0,
			"byteLength":438684,
			"byteOffset":5002712,
			"target":34962
		},
		{
			"buffer":0,
			"byteLength":438684,
			"byteOffset":5441396,
			"target":34962
		},
		{
			"buffer":0,
			"byteLength":76464,
			"byteOffset":5880080,
			"target":34963
		},
		{
			"buffer":0,
			"byteLength":629136,
			"byteOffset":5956544,
			"target":34962
		},
		{
			"buffer":0,
			"byteLength":629136,
			"byteOffset":6585680,
			"target":34962
		},
		{
			"buffer":0,
			"byteLength":107640,
			"byteOffset":7214816,
			"target":34963
		},
		{
			"buffer":0,
			"byteLength":314340,
			"byteOffset":7322456,
			"target":34962
		},
		{
			"buffer":0,
			"byteLength":314340,
			"byteOffset":7636796,
			"target":34962
		},
		{
			"buffer":0,
			"byteLength":53664,
			"byteOffset":7951136,
			"target":34963
		},
		{
			"buffer":0,
			"byteLength":314532,
			"byteOffset":8004800,
			"target":34962
		},
		{
			"buffer":0,
			"byteLength":314532,
			"byteOffset":8319332,
			"target":34962
		},
		{
			"buffer":0,
			"byteLength":53664,
			"byteOffset":8633864,
			"target":34963
		},
		{
			"buffer":0,
			"byteLength":629760,
			"byteOffset":8687528,
			"target":34962
		},
		{
			"buffer":0,
			"byteLength":629760,
			"byteOffset":9317288,
			"target":34962
		},
		{
			"buffer":0,
			"byteLength":107640,
			"byteOffset":9947048,
			"target":34963
		}
	],
	"buffers":[
		{
			"byteLength":10054688,
			"uri":"truck.bin"
		}
	]
}
